<svg style="object-fit:cover" id="my-svg" version="1" baseProfile="full" width="100%" height="100%" viewBox="0 0 1472 719" xmlns="http://www.w3.org/2000/svg"><rect width="1472" height="719" fill="#000000"/><defs><linearGradient id="linear-gradient" x1="0" x2="1" y1="0" y2="0"><stop offset="0%" stop-color="#f7258580"/><stop offset="100%" stop-color="#3f37c980"/></linearGradient></defs><path transform="scale(-1, -1)" style="transform-origin:center" d="M 0,719 V 0,143 C 25.27987013236948,161.9339366783483 50.55974026473896,180.86787335669655 90,193 C 129.44025973526104,205.13212664330345 183.04090907341367,210.46244325156206 224,195 C 264.9590909265863,179.53755674843794 293.2766234416063,143.2823536370551 318,136 C 342.7233765583937,128.7176463629449 363.8525971601611,150.40814220021753 404,165 C 444.1474028398389,179.59185779978247 503.3129879177494,187.08507756207467 543,166 C 582.6870120822506,144.91492243792533 602.8954511688413,95.25154755148384 636,98 C 669.1045488311587,100.74845244851616 715.1052074068851,155.90873223199 753,162 C 790.8947925931149,168.09126776801 820.6837192036182,125.11352352055623 852,108 C 883.3162807963818,90.88647647944377 916.1599157786418,99.6371736857851 947,101 C 977.8400842213582,102.3628263142149 1006.6766176818148,96.3377817363033 1036,109 C 1065.3233823181852,121.6622182636967 1095.133613494099,153.01169936900163 1137,145 C 1178.866386505901,136.98830063099837 1232.7889283417878,89.61542078769028 1268,102 C 1303.2110716582122,114.38457921230972 1319.7106731387494,186.52661748023723 1357,188 C 1394.2893268612506,189.47338251976277 1452.3683791032145,120.27810929136079 1475,101 C 1497.6316208967855,81.72189070863921 1484.8158104483928,112.3609453543196 1472,143 C 1472,143 1472,719 1472,719 Z" stroke="none" stroke-width="0" fill="url(#linear-gradient)" class="transition-all duration-300 ease-in-out delay-150"/><defs><linearGradient id="linear-gradient" x1="0" x2="1" y1="0" y2="0"><stop offset="0%" stop-color="#f7258590"/><stop offset="100%" stop-color="#3f37c990"/></linearGradient></defs><path transform="scale(-1, -1)" style="transform-origin: center center 0px;" d="M 0,719 V 0,215 C 44.900919550879266,228.45825474207248 89.80183910175853,241.91650948414494 119,241 C 148.19816089824147,240.08349051585506 161.69356314384518,224.79221680549273 196,231 C 230.30643685615482,237.20778319450727 285.4239083228608,264.91462329388423 329,265 C 372.5760916771392,265.08537670611577 404.61080356471155,237.54929001897034 432,212 C 459.38919643528845,186.45070998102966 482.1328774182929,162.88821663023435 514,171 C 545.8671225817071,179.11178336976565 586.8576867621169,218.89784346009213 627,245 C 667.1423132378831,271.10215653990787 706.436375533239,283.52040952939717 742,261 C 777.563624466761,238.4795904706028 809.3968111049269,181.02051842231913 846,164 C 882.6031888950731,146.97948157768087 923.9763800470535,170.39751678132623 961,180 C 998.0236199529465,189.60248321867377 1030.697668706859,185.38941445237595 1058,183 C 1085.302331293141,180.61058554762405 1107.23294512551,180.04482540917 1145,174 C 1182.76705487449,167.95517459083 1236.3705507911004,156.43128391094413 1276,166 C 1315.6294492088996,175.56871608905587 1341.2848517100883,206.23003894705352 1378,219 C 1414.7151482899117,231.76996105294648 1462.490042368546,226.64856030084184 1480,223 C 1497.509957631454,219.35143969915816 1484.754978815727,217.17571984957908 1472,215 C 1472,215 1472,719 1472,719 Z" stroke="none" stroke-width="0" fill="url(#linear-gradient)" class="transition-all duration-300 ease-in-out delay-150"/><defs><linearGradient id="linear-gradient" x1="0" x2="1" y1="0" y2="0"><stop offset="0%" stop-color="#f72585ff"/><stop offset="100%" stop-color="#3f37c9ff"/></linearGradient></defs><path transform="scale(-1, -1)" style="transform-origin: center center 0px;" d="M 0,719 V 0,323 C 41.49969638474191,306.46199354967234 82.99939276948382,289.92398709934474 119,307 C 155.00060723051618,324.07601290065526 185.50212530680668,374.76604515229326 220,372 C 254.49787469319332,369.23395484770674 292.9921060032895,313.011832291482 328,303 C 363.0078939967105,292.988167708518 394.529450680035,329.18662568177876 429,332 C 463.470549319965,334.81337431822124 500.8900912765705,304.24166498140283 537,303 C 573.1099087234295,301.75833501859717 607.910184213683,329.84671439261007 642,335 C 676.089815786317,340.15328560738993 709.4691718686972,322.3714774481568 745,327 C 780.5308281313028,331.6285225518432 818.2131283115283,358.66737581476286 855,354 C 891.7868716884717,349.33262418523714 927.6783148851895,312.9590192927916 962,298 C 996.3216851148105,283.0409807072084 1029.073612147714,289.49654701407064 1064,309 C 1098.926387852286,328.50345298592936 1136.027236523955,361.05479265092583 1173,366 C 1209.972763476045,370.94520734907417 1246.8174417564655,348.284282382226 1273,341 C 1299.1825582435345,333.715717617774 1314.7029964501826,341.80807782016996 1348,341 C 1381.2970035498174,340.19192217983004 1432.370572442805,330.48340633709427 1456,326 C 1479.629427557195,321.51659366290573 1475.8147137785975,322.25829683145287 1472,323 C 1472,323 1472,719 1472,719 Z" stroke="none" stroke-width="0" fill="url(#linear-gradient)" class="transition-all duration-300 ease-in-out delay-150"/></svg>