<svg style="object-fit:cover" id="my-svg" version="1" baseProfile="full" width="100%" height="100%" viewBox="0 0 1472 719" xmlns="http://www.w3.org/2000/svg"><rect width="1472" height="719" fill="#ffffff"/><defs><linearGradient id="linear-gradient" x1="0" x2="1" y1="0" y2="0"><stop offset="0%" stop-color="#f7258580"/><stop offset="100%" stop-color="#3f37c980"/></linearGradient></defs><path transform="scale(-1, -1)" style="transform-origin:center" d="M 0,719 V 0,143 C 53.120704467353946,140.71557437407952 106.24140893470789,138.43114874815905 167,124 C 227.7585910652921,109.56885125184094 296.1550687285224,82.9909793814433 366,99 C 435.8449312714776,115.0090206185567 507.1383161512026,173.60493372606777 574,191 C 640.8616838487974,208.39506627393223 703.2916666666667,184.58928571428572 763,167 C 822.7083333333333,149.41071428571428 879.6950171821304,138.0379234167894 936,146 C 992.3049828178696,153.9620765832106 1047.9282646048111,181.25902061855672 1108,182 C 1168.0717353951889,182.74097938144328 1232.5919243986255,156.92599410898382 1294,146 C 1355.4080756013745,135.07400589101618 1413.7040378006873,139.0370029455081 1472,143 C 1472,143 1472,719 1472,719 Z" stroke="none" stroke-width="0" fill="url(#linear-gradient)" class="transition-all duration-300 ease-in-out delay-150"/><defs><linearGradient id="linear-gradient" x1="0" x2="1" y1="0" y2="0"><stop offset="0%" stop-color="#f7258590"/><stop offset="100%" stop-color="#3f37c990"/></linearGradient></defs><path transform="scale(-1, -1)" style="transform-origin: center center 0px;" d="M 0,719 V 0,215 C 73.54853951890033,193.2689617083947 147.09707903780065,171.5379234167894 207,174 C 266.90292096219935,176.4620765832106 313.1602233676976,203.1172680412371 373,216 C 432.8397766323024,228.8827319587629 506.26202749140896,227.9930044182622 567,229 C 627.737972508591,230.0069955817378 675.7916666666666,232.91071428571428 740,237 C 804.2083333333334,241.08928571428572 884.5713058419246,246.36413843888073 950,233 C 1015.4286941580754,219.63586156111927 1065.9231099656356,187.63273195876286 1112,191 C 1158.0768900343644,194.36726804123714 1199.7362542955327,233.10493372606774 1259,243 C 1318.2637457044673,252.89506627393226 1395.1318728522338,233.94753313696611 1472,215 C 1472,215 1472,719 1472,719 Z" stroke="none" stroke-width="0" fill="url(#linear-gradient)" class="transition-all duration-300 ease-in-out delay-150"/><defs><linearGradient id="linear-gradient" x1="0" x2="1" y1="0" y2="0"><stop offset="0%" stop-color="#f72585ff"/><stop offset="100%" stop-color="#3f37c9ff"/></linearGradient></defs><path transform="scale(-1, -1)" style="transform-origin: center center 0px;" d="M 0,719 V 0,323 C 78.26890034364263,322.5127025036819 156.53780068728526,322.02540500736376 212,324 C 267.46219931271474,325.97459499263624 300.11769759450164,330.4110824742268 362,321 C 423.88230240549836,311.5889175257732 514.991408934708,288.33026509572903 577,294 C 639.008591065292,299.66973490427097 671.9166666666666,334.2678571428571 731,338 C 790.0833333333334,341.7321428571429 875.3419243986255,314.5983063328424 950,300 C 1024.6580756013745,285.4016936671576 1088.7156357388317,283.3389175257732 1138,281 C 1187.2843642611683,278.6610824742268 1221.795532646048,276.0460235640648 1275,283 C 1328.204467353952,289.9539764359352 1400.102233676976,306.4769882179676 1472,323 C 1472,323 1472,719 1472,719 Z" stroke="none" stroke-width="0" fill="url(#linear-gradient)" class="transition-all duration-300 ease-in-out delay-150"/></svg>