<svg style="object-fit:cover" id="my-svg" version="1" baseProfile="full" width="100%" height="100%" viewBox="0 0 1472 720" xmlns="http://www.w3.org/2000/svg"><rect width="1472" height="720" fill="#ffffff"/><defs><linearGradient id="linear-gradient" x1="1" x2="0" y1="0" y2="1"><stop offset="0%" stop-color="#10f9f980"/><stop offset="100%" stop-color="#f7258580"/></linearGradient></defs><path transform="scale(1, -1)" style="transform-origin: center center 0px;" d="M 0,720 V 0,144 C 38.87439351075652,149.76831449192318 77.74878702151304,155.53662898384636 112,167 C 146.25121297848696,178.46337101615364 175.87924542470435,195.62179855653778 207,185 C 238.12075457529565,174.37820144346222 270.7342312796695,135.97617679000246 304,129 C 337.2657687203305,122.02382320999756 371.18382945661784,146.47349428345248 410,157 C 448.81617054338216,167.52650571654752 492.5304508938593,164.12984607618762 531,150 C 569.4695491061407,135.87015392381238 602.6943669679451,111.00712141179702 638,119 C 673.3056330320549,126.99287858820298 710.6920812343602,167.84166827662426 743,180 C 775.3079187656398,192.15833172337574 802.5373080946141,175.62620548170594 833,168 C 863.4626919053859,160.37379451829406 897.1586863871829,161.65350979655202 931,147 C 964.8413136128171,132.34649020344798 998.8279463566541,101.75975533208597 1042,100 C 1085.1720536433459,98.24024466791403 1137.5295281862004,125.30746887510404 1170,124 C 1202.4704718137996,122.69253112489596 1215.0539408985442,93.01036916749788 1249,108 C 1282.9460591014558,122.98963083250212 1338.2547082196227,182.65105445490443 1378,179 C 1417.7452917803773,175.34894554509557 1441.927226222965,108.38541301288444 1455,92 C 1468.072773777035,75.61458698711556 1470.0363868885174,109.80729349355778 1472,144 C 1472,144 1472,720 1472,720 Z" stroke="none" stroke-width="0" fill="url(#linear-gradient)" class="transition-all duration-300 ease-in-out delay-150"/><defs><linearGradient id="linear-gradient" x1="1" x2="0" y1="0" y2="1"><stop offset="0%" stop-color="#10f9f990"/><stop offset="100%" stop-color="#f7258590"/></linearGradient></defs><path transform="scale(1, -1)" style="transform-origin: center center 0px;" d="M 0,720 V 0,216 C 44.75327568217055,226.9754260180557 89.5065513643411,237.95085203611143 121,238 C 152.4934486356589,238.04914796388857 170.72707022480603,227.17201787361 206,222 C 241.27292977519397,216.82798212639 293.58516773643464,217.3610764694486 328,225 C 362.41483226356536,232.6389235305514 378.93225882945546,247.38367624859575 410,258 C 441.06774117054454,268.61632375140425 486.6857969457435,275.10421853616856 524,254 C 561.3142030542565,232.8957814638314 590.3245533875706,184.19944960672993 623,180 C 655.6754466124294,175.80055039327007 692.0159895039742,216.09798303691173 731,238 C 769.9840104960258,259.9020169630883 811.611488596533,263.4086182456232 851,247 C 890.388511403467,230.59138175437684 927.5380561098937,194.2675439805956 960,199 C 992.4619438901063,203.7324560194044 1020.2362869638923,249.52120583199437 1051,248 C 1081.7637130361077,246.47879416800563 1115.5167960345373,197.6476326914269 1157,180 C 1198.4832039654627,162.3523673085731 1247.696528897959,175.88826340229795 1280,189 C 1312.303471102041,202.11173659770205 1327.6970883736265,214.79931369938132 1366,222 C 1404.3029116263735,229.20068630061868 1465.515117607535,230.91448180017676 1487,229 C 1508.484882392465,227.08551819982324 1490.2424411962324,221.54275909991162 1472,216 C 1472,216 1472,720 1472,720 Z" stroke="none" stroke-width="0" fill="url(#linear-gradient)" class="transition-all duration-300 ease-in-out delay-150"/><defs><linearGradient id="linear-gradient" x1="1" x2="0" y1="0" y2="1"><stop offset="0%" stop-color="#10f9f9ff"/><stop offset="100%" stop-color="#f72585ff"/></linearGradient></defs><path transform="scale(1, -1)" style="transform-origin: center center 0px;" d="M 0,720 V 0,324 C 32.916437871648995,348.4281293068648 65.83287574329799,372.85625861372955 101,355 C 136.167124256702,337.14374138627045 173.58493489845705,277.0030948519466 213,271 C 252.41506510154295,264.9969051480534 293.8273846628738,313.1313619784839 326,324 C 358.1726153371262,334.8686380215161 381.10552645004776,308.47145723411796 410,306 C 438.89447354995224,303.52854276588204 473.7505095369354,324.98280908504427 510,325 C 546.2494904630646,325.01719091495573 583.8924354022107,303.59730642570474 626,286 C 668.1075645977893,268.40269357429526 714.6797488542221,254.62796521213676 750,280 C 785.3202511457779,305.37203478786324 809.3885691809008,369.8908327257484 837,375 C 864.6114308190992,380.1091672742516 895.7659744221744,325.8087038848699 931,300 C 966.2340255778256,274.1912961151301 1005.5475331304017,276.8743517347721 1044,301 C 1082.4524668695983,325.1256482652279 1120.0438930562184,370.6938891760417 1152,374 C 1183.9561069437816,377.3061108239583 1210.276894644725,338.350091561061 1250,319 C 1289.723105355275,299.649908438939 1342.8485283648818,299.9057445797144 1384,310 C 1425.1514716351182,320.0942554202856 1454.328991895748,340.0269301200816 1467,344 C 1479.671008104252,347.9730698799184 1475.835504052126,335.9865349399592 1472,324 C 1472,324 1472,720 1472,720 Z" stroke="none" stroke-width="0" fill="url(#linear-gradient)" class="transition-all duration-300 ease-in-out delay-150"/></svg>