<svg style="object-fit:cover" id="my-svg" version="1" baseProfile="full" width="100%" height="100%" viewBox="0 0 1536 751" xmlns="http://www.w3.org/2000/svg"><rect width="1536" height="751" fill="#000000"/><defs><linearGradient id="linear-gradient" x1="0.5" x2="0.5" y1="0" y2="1"><stop offset="0%" stop-color="#10f9f980"/><stop offset="100%" stop-color="#7209b780"/></linearGradient></defs><path transform="scale(1, -1)" style="transform-origin:center" d="M 0,751 V 0,150 C 46.03878598065498,144.8997042500161 92.07757196130996,139.79940850003223 127,130 C 161.92242803869004,120.20059149996777 185.72849813541518,105.7020702498872 220,99 C 254.27150186458482,92.2979297501128 299.0084354970293,93.39231050041897 338,115 C 376.9915645029707,136.60768949958103 410.23775987646746,178.728687748437 443,200 C 475.76224012353254,221.271312251563 508.040524997101,221.69293850583304 545,197 C 581.959475002899,172.30706149416696 623.6001401351288,122.49955822823085 662,116 C 700.3998598648712,109.50044177176915 735.5589144623841,146.3088285812436 769,172 C 802.4410855376159,197.6911714187564 834.1642020153351,212.2651274467949 875,189 C 915.8357979846649,165.7348725532051 965.784277476276,104.63066163157679 998,98 C 1030.215722523724,91.36933836842321 1044.6986880795614,139.21222602689792 1078,155 C 1111.3013119204386,170.78777397310208 1163.4209702054782,154.5204342608315 1200,147 C 1236.5790297945218,139.4795657391685 1257.617431098525,140.70603692977613 1296,153 C 1334.382568901475,165.29396307022387 1390.1093054004214,188.65541802006396 1433,190 C 1475.8906945995786,191.34458197993604 1505.9453472997893,170.67229098996802 1536,150 C 1536,150 1536,751 1536,751 Z" stroke="none" stroke-width="0" fill="url(#linear-gradient)" class="transition-all duration-300 ease-in-out delay-150"/><defs><linearGradient id="linear-gradient" x1="0.5" x2="0.5" y1="0" y2="1"><stop offset="0%" stop-color="#10f9f990"/><stop offset="100%" stop-color="#7209b790"/></linearGradient></defs><path transform="scale(1, -1)" style="transform-origin: center center 0px;" d="M 0,751 V 0,225 C 45.58255688288456,205.83414849445353 91.16511376576912,186.66829698890706 124,188 C 156.83488623423088,189.33170301109294 176.92210181980803,211.1609605388253 205,214 C 233.07789818019197,216.8390394611747 269.1464789549986,200.6878608557918 308,195 C 346.8535210450014,189.3121391442082 388.49198236019765,194.08759603800763 429,187 C 469.50801763980235,179.91240396199237 508.88559160421073,160.9617549921777 549,173 C 589.1144083957893,185.0382450078223 629.9656512229597,228.06538399328156 669,244 C 708.0343487770403,259.93461600671844 745.2518035039507,248.77670903469607 774,253 C 802.7481964960493,257.22329096530393 823.0271347612381,276.82777986793445 859,279 C 894.9728652387619,281.17222013206555 946.6396574510968,265.912171493566 987,253 C 1027.3603425489032,240.08782850643397 1056.4142354343744,229.52353415780132 1088,233 C 1119.5857645656256,236.47646584219868 1153.7034008114047,253.99369187522856 1188,243 C 1222.2965991885953,232.00630812477144 1256.7721613200065,192.5016983412846 1296,198 C 1335.2278386799935,203.4983016587154 1379.2079539085696,253.99951475963297 1420,266 C 1460.7920460914304,278.000485240367 1498.396023045715,251.5002426201835 1536,225 C 1536,225 1536,751 1536,751 Z" stroke="none" stroke-width="0" fill="url(#linear-gradient)" class="transition-all duration-300 ease-in-out delay-150"/><defs><linearGradient id="linear-gradient" x1="0.5" x2="0.5" y1="0" y2="1"><stop offset="0%" stop-color="#10f9f9ff"/><stop offset="100%" stop-color="#7209b7ff"/></linearGradient></defs><path transform="scale(1, -1)" style="transform-origin: center center 0px;" d="M 0,751 V 0,337 C 38.42084777119874,337.84981871959496 76.84169554239747,338.69963743919 111,354 C 145.15830445760253,369.30036256081 175.0540656016088,399.05126896283514 210,383 C 244.9459343983912,366.94873103716486 284.9420420511673,305.0952867094694 324,296 C 363.0579579488327,286.9047132905306 401.177766193722,330.56758419928724 436,353 C 470.822233806278,375.43241580071276 502.346893173945,376.6343764933814 539,372 C 575.653106826055,367.3656235066186 617.4346611104986,356.89490982718706 656,338 C 694.5653388895014,319.10509017281294 729.9144623840606,291.7859841978702 768,293 C 806.0855376159394,294.2140158021298 846.9074893532595,323.9611533813323 882,341 C 917.0925106467405,358.0388466186677 946.4555802029017,362.3694022768007 985,351 C 1023.5444197970983,339.6305977231993 1071.270189835134,312.5612375114649 1103,316 C 1134.729810164866,319.4387624885351 1150.463660456562,353.3856476773393 1186,342 C 1221.536339543438,330.6143523226607 1276.875168338618,273.8961717791779 1315,282 C 1353.124831661382,290.1038282208221 1374.0356661889664,363.02966520594913 1408,383 C 1441.9643338110336,402.97033479405087 1488.9821669055168,369.9851673970254 1536,337 C 1536,337 1536,751 1536,751 Z" stroke="none" stroke-width="0" fill="url(#linear-gradient)" class="transition-all duration-300 ease-in-out delay-150"/></svg>