<svg style="object-fit:cover" id="my-svg" version="1" baseProfile="full" width="100%" height="100%" viewBox="0 0 1472 720" xmlns="http://www.w3.org/2000/svg"><rect width="1472" height="720" fill="#000000"/><defs><linearGradient id="linear-gradient" x1="1" x2="0" y1="0" y2="1"><stop offset="0%" stop-color="#10f9f980"/><stop offset="100%" stop-color="#f7258580"/></linearGradient></defs><path transform="scale(1, -1)" style="transform-origin: center center 0px;" d="M 0,720 V 0,144 C 26.511608190557517,114.32766207457927 53.023216381115034,84.65532414915853 86,92 C 118.97678361888497,99.34467585084147 158.41874266609736,143.70636547794518 200,164 C 241.58125733390264,184.29363452205482 285.30181295449546,180.51921393906076 325,183 C 364.69818704550454,185.48078606093924 400.3740055159208,194.21677876581177 438,192 C 475.6259944840792,189.78322123418823 515.202164981821,176.61367099769222 541,165 C 566.797835018179,153.38632900230778 578.8173345567948,143.32853724341942 611,138 C 643.1826654432052,132.67146275658058 695.5284967910004,132.0721800286301 739,124 C 782.4715032089996,115.92781997136989 817.0686782792037,100.38274264206021 851,102 C 884.9313217207963,103.61725735793979 918.1967900921848,122.39684940312904 948,126 C 977.8032099078152,129.60315059687096 1004.1441613520572,118.02985974542361 1036,117 C 1067.8558386479428,115.97014025457639 1105.2265644995869,125.48371161517656 1146,139 C 1186.7734355004131,152.51628838482344 1230.9495806495952,170.0352937938702 1263,179 C 1295.0504193504048,187.9647062061298 1314.9751129020322,188.37511320934263 1353,172 C 1391.0248870979678,155.62488679065737 1447.1499677422764,122.46425336875924 1470,115 C 1492.8500322577236,107.53574663124076 1482.425016128862,125.76787331562038 1472,144 C 1472,144 1472,720 1472,720 Z" stroke="none" stroke-width="0" fill="url(#linear-gradient)" class="transition-all duration-300 ease-in-out delay-150"/><defs><linearGradient id="linear-gradient" x1="1" x2="0" y1="0" y2="1"><stop offset="0%" stop-color="#10f9f990"/><stop offset="100%" stop-color="#f7258590"/></linearGradient></defs><path transform="scale(1, -1)" style="transform-origin: center center 0px;" d="M 0,720 V 0,216 C 24.461145077298887,189.833244613374 48.922290154597775,163.66648922674798 88,163 C 127.07770984540223,162.33351077325202 180.7719844589078,187.16728770638207 216,204 C 251.2280155410922,220.83271229361793 267.989772009771,229.6643599477237 301,228 C 334.010227990229,226.3356400522763 383.26892750200824,214.17527250272303 419,199 C 454.73107249799176,183.82472749727697 476.93451798219576,165.63455004138422 510,166 C 543.0654820178042,166.36544995861578 586.993000569209,185.28652733174007 631,210 C 675.006999430791,234.71347266825993 719.0934797409676,265.2193406316556 752,269 C 784.9065202590324,272.7806593683444 806.6330804669204,249.8361101416375 834,224 C 861.3669195330796,198.1638898583625 894.3741983913507,169.43621880179447 935,166 C 975.6258016086493,162.56378119820553 1023.8701259676766,184.4190146511846 1056,209 C 1088.1298740323234,233.5809853488154 1104.145297737943,260.8877225934672 1141,255 C 1177.854702262057,249.11227740653285 1235.5486830805514,210.03009497494696 1275,200 C 1314.4513169194486,189.96990502505304 1335.6599699398516,208.99189750674506 1369,222 C 1402.3400300601484,235.00810249325494 1447.8114371600423,242.00231499807282 1467,240 C 1486.1885628399577,237.99768500192718 1479.0942814199789,226.99884250096358 1472,216 C 1472,216 1472,720 1472,720 Z" stroke="none" stroke-width="0" fill="url(#linear-gradient)" class="transition-all duration-300 ease-in-out delay-150"/><defs><linearGradient id="linear-gradient" x1="1" x2="0" y1="0" y2="1"><stop offset="0%" stop-color="#10f9f9ff"/><stop offset="100%" stop-color="#f72585ff"/></linearGradient></defs><path transform="scale(1, -1)" style="transform-origin: center center 0px;" d="M 0,720 V 0,324 C 33.805800335288026,308.35638652948137 67.61160067057605,292.7127730589628 101,306 C 134.38839932942395,319.2872269410372 167.35939765298383,361.5052942936302 209,351 C 250.64060234701617,340.4947057063698 300.9508087174887,277.26604976651623 333,285 C 365.0491912825113,292.73395023348377 378.8373674770614,371.43050664030494 411,375 C 443.1626325229386,378.56949335969506 493.69972137426555,307.01192367226423 528,287 C 562.3002786257344,266.98807632773577 580.3637470258763,298.52179867063825 612,300 C 643.6362529741237,301.47820132936175 688.8452905222296,272.9008816451827 730,289 C 771.1547094777704,305.0991183548173 808.2550908852058,365.874674748631 848,359 C 887.7449091147942,352.125325251369 930.1343459369469,277.6004193602935 964,276 C 997.8656540630531,274.3995806397065 1023.2075253670062,345.72364781019525 1058,356 C 1092.7924746329938,366.27635218980475 1137.0355525950285,315.5049893989256 1174,316 C 1210.9644474049715,316.4950106010744 1240.650264252879,368.2563945941024 1265,370 C 1289.349735747121,371.7436054058976 1308.3633903934558,323.4694322246648 1348,313 C 1387.6366096065442,302.5305677753352 1447.8961741732983,329.86587650723857 1472,338 C 1496.1038258267017,346.13412349276143 1484.0519129133509,335.0670617463807 1472,324 C 1472,324 1472,720 1472,720 Z" stroke="none" stroke-width="0" fill="url(#linear-gradient)" class="transition-all duration-300 ease-in-out delay-150"/></svg>