<svg style="object-fit:cover" id="my-svg" version="1" baseProfile="full" width="100%" height="100%" viewBox="0 0 1536 751" xmlns="http://www.w3.org/2000/svg"><rect width="1536" height="751" fill="#ffffff"/><defs><linearGradient id="linear-gradient" x1="1" x2="0" y1="0" y2="1"><stop offset="0%" stop-color="#10f9f980"/><stop offset="100%" stop-color="#7209b780"/></linearGradient></defs><path transform="scale(1, -1)" style="transform-origin:center" d="M 0,751 V 0,75 C 17.975074967100355,72.75807121009757 35.95014993420071,70.51614242019514 64,69 C 92.04985006579929,67.48385757980486 130.17447523029753,66.69350152931702 157,70 C 183.82552476970247,73.30649847068298 199.3519491446092,80.70985146253682 221,85 C 242.6480508553908,89.29014853746318 270.4177281912658,90.46709262053568 297,84 C 323.5822718087342,77.53290737946432 348.9771380903279,63.421778055320516 377,65 C 405.0228619096721,66.57822194467948 435.6737194474226,83.84579515818221 458,90 C 480.3262805525774,96.15420484181779 494.32798411998147,91.19504131195063 524,87 C 553.6720158800185,82.80495868804937 599.0143440726515,79.37403959401527 624,85 C 648.9856559273485,90.62596040598473 653.6146395894125,105.30880031198829 679,98 C 704.3853604105875,90.69119968801171 750.5270975696984,61.39075915803151 780,58 C 809.4729024303016,54.60924084196849 822.2769701317939,77.12816305588566 843,78 C 863.7230298682061,78.87183694411434 892.3650219031264,58.09658861842584 923,59 C 953.6349780968736,59.90341138157416 986.2629422557013,82.48548247041097 1012,81 C 1037.7370577442987,79.51451752958903 1056.583209074069,53.961481499930265 1080,47 C 1103.416790925931,40.038518500069735 1131.4042214480232,51.66859152986795 1155,60 C 1178.5957785519768,68.33140847013205 1197.7999051338384,73.36415238059791 1226,78 C 1254.2000948661616,82.63584761940209 1291.3961580166233,86.87479894774033 1317,84 C 1342.6038419833767,81.12520105225967 1356.615462799668,71.13665182844072 1379,66 C 1401.384537200332,60.86334817155928 1432.1419907847046,60.578593738496735 1465,64 C 1497.8580092152954,67.42140626150326 1532.8165740615127,74.54897321757235 1545,77 C 1557.1834259384873,79.45102678242765 1546.5917129692436,77.22551339121382 1536,75 C 1536,75 1536,751 1536,751 Z" stroke="none" stroke-width="0" fill="url(#linear-gradient)" class="transition-all duration-300 ease-in-out delay-150"/><defs><linearGradient id="linear-gradient" x1="1" x2="0" y1="0" y2="1"><stop offset="0%" stop-color="#10f9f990"/><stop offset="100%" stop-color="#7209b790"/></linearGradient></defs><path transform="scale(1, -1)" style="transform-origin: center center 0px;" d="M 0,751 V 0,112 C 23.83162435161553,103.80353032723315 47.66324870323106,95.60706065446631 75,90 C 102.33675129676894,84.39293934553369 133.17862953869127,81.3752877093679 163,92 C 192.82137046130873,102.6247122906321 221.6222331420039,126.89178850806206 242,130 C 262.3777668579961,133.10821149193794 274.3324378932933,115.05755825838386 299,110 C 323.6675621067067,104.94244174161614 361.04801528482295,112.87797845840248 394,118 C 426.95198471517705,123.12202154159752 455.47550096741526,125.43052790800617 475,125 C 494.52449903258474,124.56947209199383 505.0499808455162,121.39990990957277 531,114 C 556.9500191544838,106.60009009042723 598.3245756505203,94.96983245370278 625,96 C 651.6754243494797,97.03016754629722 663.6517165524031,110.7207602756161 685,120 C 706.3482834475969,129.2792397243839 737.0685581398674,134.14712644383283 763,126 C 788.9314418601326,117.85287355616717 810.0740508881271,96.69073394905256 833,91 C 855.9259491118729,85.30926605094744 880.6352383076245,95.08993775995694 913,100 C 945.3647616923755,104.91006224004306 985.3849958813748,104.94951501111967 1011,110 C 1036.6150041186252,115.05048498888033 1047.824778166876,125.11200219556434 1069,131 C 1090.175221833124,136.88799780443566 1121.3158914511207,138.6024762066229 1149,131 C 1176.6841085488793,123.3975237933771 1200.9116560286411,106.47809297794413 1225,100 C 1249.0883439713589,93.52190702205587 1273.0374844343144,97.4851518816006 1303,108 C 1332.9625155656856,118.5148481183994 1368.9384062341012,135.5812994956534 1394,129 C 1419.0615937658988,122.41870050434657 1433.2088906292804,92.18965013578563 1458,90 C 1482.7911093707196,87.81034986421437 1518.226031248777,113.66009996120411 1533,122 C 1547.773968751223,130.3399000387959 1541.8869843756115,121.16995001939794 1536,112 C 1536,112 1536,751 1536,751 Z" stroke="none" stroke-width="0" fill="url(#linear-gradient)" class="transition-all duration-300 ease-in-out delay-150"/><defs><linearGradient id="linear-gradient" x1="1" x2="0" y1="0" y2="1"><stop offset="0%" stop-color="#10f9f9ff"/><stop offset="100%" stop-color="#7209b7ff"/></linearGradient></defs><path transform="scale(1, -1)" style="transform-origin: center center 0px;" d="M 0,751 V 0,168 C 23.95581626416505,178.5488535286049 47.9116325283301,189.0977070572098 73,185 C 98.0883674716699,180.9022929427902 124.30928615084463,162.15802529976582 153,161 C 181.69071384915537,159.84197470023418 212.85122286829147,176.270191743727 235,186 C 257.1487771317085,195.729808256273 270.2858223759894,198.76120772532622 295,191 C 319.7141776240106,183.23879227467378 356.0054876277508,164.6849773549681 385,160 C 413.9945123722492,155.3150226450319 435.6922271130075,164.49888285480137 461,171 C 486.3077728869925,177.50111714519863 515.2256039202193,181.3194912258264 538,177 C 560.7743960797807,172.6805087741736 577.4053572061152,160.22315224189296 603,156 C 628.5946427938848,151.77684775810704 663.1529672553199,155.78789980660167 694,165 C 724.8470327446801,174.21210019339833 751.9827737726051,188.6252485317003 773,191 C 794.0172262273949,193.3747514682997 808.9159376542591,183.7111060665973 833,171 C 857.0840623457409,158.2888939334027 890.3534756103585,142.53032720191058 921,144 C 951.6465243896415,145.46967279808942 979.6701599043074,164.1675851257604 1008,163 C 1036.3298400956926,161.8324148742396 1064.9658847724124,140.7993322950479 1089,140 C 1113.0341152275876,139.2006677049521 1132.4663010060433,158.63508569404803 1155,174 C 1177.5336989939567,189.36491430595197 1203.1689112034142,200.66032492875988 1227,196 C 1250.8310887965858,191.33967507124012 1272.8580541803005,170.7236145909124 1297,162 C 1321.1419458196995,153.2763854090876 1347.3988720753832,156.4452167075905 1372,159 C 1396.6011279246168,161.5547832924095 1419.546457518166,163.49551857872564 1450,164 C 1480.453542481834,164.50448142127436 1518.4152978519526,163.57270897750695 1534,164 C 1549.5847021480474,164.42729102249305 1542.7923510740238,166.2136455112465 1536,168 C 1536,168 1536,751 1536,751 Z" stroke="none" stroke-width="0" fill="url(#linear-gradient)" class="transition-all duration-300 ease-in-out delay-150"/></svg>